Coordinates
version=1
nRows=82
nColumns=19
inDegrees=yes

Units are S.I. units (second, meters, Newtons, ...)
Angles are in degrees.

endheader
time	1_Force_X	1_Force_Y	1_Force_Z	1_Moment_X	1_Moment_Y	1_Moment_Z	1_COP_X	1_COP_Y	1_COP_Z	2_Force_X	2_Force_Y	2_Force_Z	2_Moment_X	2_Moment_Y	2_Moment_Z	2_COP_X	2_COP_Y	2_COP_Z
1.3425	-2.352	-0.340	1.066	-0.218	0.000	0.386	-3.647	3.597	-2.626	-0.215	0.000	0.250	0.00000	-4.61493	0.00000	0.00000	7.16843	0.00000
1.3450	-2.658	-0.683	1.157	-0.220	0.000	0.406	-3.649	3.599	-2.363	-0.215	0.000	0.251	0.00000	-2.48011	0.00000	0.00000	7.75643	0.00000
1.3475	-2.525	-1.028	1.070	-0.229	0.000	0.428	-3.825	4.801	-2.187	-0.216	0.000	0.248	0.00000	-1.47182	0.00000	0.00000	7.06796	0.00000
1.3500	-1.908	-1.559	1.286	-0.229	0.000	0.400	-3.259	2.917	-1.839	-0.215	0.000	0.250	0.00000	-1.02862	0.00000	0.00000	8.75985	0.00000
1.3525	-1.908	-1.909	1.330	-0.227	0.000	0.401	-3.692	2.913	-2.321	-0.215	0.000	0.251	0.00000	-0.94374	0.00000	0.00000	9.00969	0.00000
1.3550	-2.081	-1.208	1.639	-0.236	0.000	0.388	-3.739	3.605	-1.839	-0.215	0.000	0.249	0.00000	-1.30297	0.00000	0.00000	8.87132	0.00000
1.3575	-2.086	-1.215	1.285	-0.216	0.000	0.386	-3.475	3.430	-2.144	-0.215	0.000	0.251	0.00000	-1.42849	0.00000	0.00000	7.95005	0.00000
1.3600	-2.083	-1.382	1.507	-0.234	0.000	0.393	-3.345	2.571	-2.056	-0.215	0.000	0.253	0.00000	-1.19948	0.00000	0.00000	9.43792	0.00000
1.3625	-2.217	-0.857	1.156	-0.228	0.000	0.417	-3.517	4.630	-2.360	-0.217	0.000	0.248	0.00000	-1.48571	0.00000	0.00000	6.53125	0.00000
1.3650	-2.301	-0.858	1.464	-0.233	0.000	0.407	-3.649	3.942	-2.362	-0.215	0.000	0.250	0.00000	-1.60197	0.00000	0.00000	7.32828	0.00000
1.3675	-2.083	-0.511	1.242	-0.239	0.000	0.400	-3.869	3.770	-2.321	-0.214	0.000	0.250	0.00000	-2.46088	0.00000	0.00000	7.96292	0.00000
1.3700	-1.999	-1.043	1.239	-0.217	0.000	0.368	-3.562	2.917	-2.059	-0.215	0.000	0.250	0.00000	-1.75033	0.00000	0.00000	9.16348	0.00000
1.3725	-2.172	-1.904	1.243	-0.243	0.000	0.390	-3.477	2.573	-1.885	-0.214	0.000	0.250	0.00000	-1.28490	0.00000	0.00000	9.98303	0.00000
1.3750	-1.998	-1.910	1.330	-0.225	0.000	0.382	-3.565	2.399	-1.972	-0.213	0.000	0.253	0.00000	-1.11771	0.00000	0.00000	10.69668	0.00000
1.3775	-1.644	-3.124	0.979	-0.245	0.000	0.417	-3.474	3.258	-2.276	-0.216	0.000	0.250	0.00000	-0.75798	0.00000	0.00000	7.94483	0.00000
1.3800	-1.869	-1.387	0.977	-0.222	0.000	0.396	-3.522	2.744	-1.753	-0.215	0.000	0.251	0.00000	-1.20863	0.00000	0.00000	10.09027	0.00000
1.3825	-2.042	-1.385	1.066	-0.232	0.000	0.399	-3.609	3.087	-1.753	-0.215	0.000	0.250	0.00000	-1.34028	0.00000	0.00000	9.56896	0.00000
1.3850	-2.523	-0.160	1.332	-0.237	0.000	0.387	-3.735	3.081	-2.629	-0.214	0.000	0.250	0.00000	-9.66460	0.00000	0.00000	7.94943	0.00000
1.3875	-2.390	-0.160	1.243	-0.241	0.000	0.407	-3.518	3.425	-2.406	-0.215	0.000	0.252	0.00000	-7.58124	0.00000	0.00000	7.56427	0.00000
1.3900	-2.350	0.012	1.464	-0.217	0.000	0.385	-3.475	3.082	-2.451	-0.213	0.000	0.251	0.00000	86.92289	0.00000	0.00000	7.69761	0.00000
1.3925	-2.437	-0.335	1.155	-0.233	0.000	0.390	-3.737	3.254	-2.409	-0.214	0.000	0.251	0.00000	-4.86495	0.00000	0.00000	8.25712	0.00000
1.3950	-2.302	-0.337	1.286	-0.233	0.000	0.407	-3.695	3.257	-2.103	-0.214	0.000	0.249	0.00000	-3.47587	0.00000	0.00000	8.66678	0.00000
1.3975	-2.219	-1.213	1.109	-0.221	0.000	0.388	-3.345	3.257	-2.056	-0.216	0.000	0.250	0.00000	-1.66939	0.00000	0.00000	8.04741	0.00000
1.4000	-2.348	-1.900	1.334	-0.233	0.000	0.409	-3.477	2.398	-1.973	-0.215	0.000	0.251	0.00000	-1.10491	0.00000	0.00000	10.23508	0.00000
1.4025	-2.347	-0.511	1.109	-0.248	0.000	0.390	-3.692	3.425	-2.496	-0.215	0.000	0.249	0.00000	-3.58225	0.00000	0.00000	7.67405	0.00000
1.4050	-2.350	0.184	1.154	-0.219	0.000	0.392	-3.694	3.598	-2.278	-0.216	0.000	0.248	0.00000	5.75285	0.00000	0.00000	7.78580	0.00000
1.4075	-2.265	-1.033	1.200	-0.216	0.000	0.394	-3.478	2.398	-1.841	-0.214	0.000	0.252	0.00000	-1.58359	0.00000	0.00000	10.70473	0.00000
1.4100	-2.174	-1.381	1.156	-0.232	0.000	0.397	-3.563	2.396	-2.146	-0.215	0.000	0.253	0.00000	-1.37232	0.00000	0.00000	10.29769	0.00000
1.4125	-2.351	0.184	1.198	-0.219	0.000	0.382	-3.823	3.596	-2.627	-0.214	0.000	0.250	0.00000	6.42330	0.00000	0.00000	7.52404	0.00000
1.4150	-2.392	-0.332	1.289	-0.231	0.000	0.407	-3.562	3.425	-2.318	-0.216	0.000	0.252	0.00000	-3.58071	0.00000	0.00000	7.86826	0.00000
1.4175	-2.439	-0.855	1.245	-0.224	0.000	0.403	-3.608	3.255	-2.189	-0.214	0.000	0.251	0.00000	-1.84234	0.00000	0.00000	8.32697	0.00000
1.4200	-2.433	-0.680	1.510	-0.231	0.000	0.417	-3.562	3.598	-2.407	-0.215	0.000	0.250	0.00000	-1.67287	0.00000	0.00000	7.33557	0.00000
1.4225	-2.306	-0.509	1.067	-0.235	0.000	0.399	-3.738	3.255	-2.189	-0.214	0.000	0.252	0.00000	-3.02196	0.00000	0.00000	8.73221	0.00000
1.4250	-2.127	-2.079	1.287	-0.238	0.000	0.398	-3.476	2.914	-1.970	-0.216	0.000	0.251	0.00000	-1.11464	0.00000	0.00000	9.16324	0.00000
1.4275	-2.132	-1.904	1.157	-0.222	0.000	0.405	-3.347	2.742	-1.928	-0.213	0.000	0.250	0.00000	-1.00725	0.00000	0.00000	8.97761	0.00000
1.4300	-1.956	-1.040	1.196	-0.219	0.000	0.374	-3.697	2.228	-1.800	-0.213	0.000	0.251	0.00000	-1.62111	0.00000	0.00000	11.98941	0.00000
1.4325	-2.131	-0.861	1.375	-0.220	0.000	0.383	-3.565	3.086	-1.839	-0.217	0.000	0.251	0.00000	-1.71248	0.00000	0.00000	9.36247	0.00000
1.4350	-2.043	-0.864	1.153	-0.222	0.000	0.385	-3.522	2.228	-1.799	-0.214	0.000	0.251	0.00000	-1.82287	0.00000	0.00000	11.42234	0.00000
1.4375	-1.954	-1.734	0.977	-0.233	0.000	0.399	-3.389	2.913	-2.057	-0.215	0.000	0.252	0.00000	-1.20026	0.00000	0.00000	8.70939	0.00000
1.4400	-2.217	0.181	1.329	-0.215	0.000	0.376	-3.608	2.911	-2.191	-0.213	0.000	0.251	0.00000	5.64213	0.00000	0.00000	8.83342	0.00000
1.4425	-2.351	-0.163	1.332	-0.212	0.000	0.394	-3.695	3.424	-2.277	-0.215	0.000	0.251	0.00000	-6.54310	0.00000	0.00000	8.12477	0.00000
1.4450	-2.306	0.184	1.242	-0.216	0.000	0.386	-3.696	2.566	-2.193	-0.214	0.000	0.251	0.00000	5.60484	0.00000	0.00000	9.80818	0.00000
1.4475	-2.217	-0.858	1.464	-0.223	0.000	0.398	-3.521	1.883	-1.886	-0.215	0.000	0.253	0.00000	-1.49490	0.00000	0.00000	12.78486	0.00000
1.4500	-2.044	-0.168	1.196	-0.213	0.000	0.377	-3.391	2.569	-1.927	-0.215	0.000	0.252	0.00000	-6.82765	0.00000	0.00000	9.71435	0.00000
1.4525	-1.911	-1.388	1.329	-0.215	0.000	0.389	-3.435	2.227	-1.841	-0.213	0.000	0.253	0.00000	-1.07734	0.00000	0.00000	11.05236	0.00000
1.4550	-2.262	-1.379	1.201	-0.233	0.000	0.397	-3.477	3.085	-1.971	-0.216	0.000	0.250	0.00000	-1.39374	0.00000	0.00000	8.75095	0.00000
1.4575	-2.040	-1.382	1.331	-0.240	0.000	0.390	-3.434	1.368	-1.931	-0.213	0.000	0.253	0.00000	-1.33012	0.00000	0.00000	15.36229	0.00000
1.4600	-2.215	-0.508	1.332	-0.240	0.000	0.401	-3.606	3.768	-2.406	-0.216	0.000	0.250	0.00000	-2.55430	0.00000	0.00000	7.31633	0.00000
1.4625	-2.349	0.185	1.375	-0.219	0.000	0.387	-3.519	3.940	-2.363	-0.216	0.000	0.248	0.00000	5.30193	0.00000	0.00000	6.92273	0.00000
1.4650	-2.303	-1.028	1.201	-0.242	0.000	0.412	-3.781	3.596	-2.275	-0.216	0.000	0.252	0.00000	-1.58067	0.00000	0.00000	8.22698	0.00000
1.4675	-2.131	-1.041	1.108	-0.227	0.000	0.370	-3.258	2.226	-2.102	-0.214	0.000	0.253	0.00000	-2.05000	0.00000	0.00000	9.75763	0.00000
1.4700	-2.261	-1.555	1.376	-0.231	0.000	0.390	-3.523	2.057	-1.712	-0.213	0.000	0.252	0.00000	-1.31847	0.00000	0.00000	12.34697	0.00000
1.4725	-2.217	-0.689	1.374	-0.225	0.000	0.376	-3.523	2.227	-1.755	-0.213	0.000	0.252	0.00000	-2.39669	0.00000	0.00000	11.51612	0.00000
1.4750	-2.085	-1.728	1.333	-0.232	0.000	0.406	-3.260	1.538	-1.973	-0.213	0.000	0.254	0.00000	-0.99436	0.00000	0.00000	13.00697	0.00000
1.4775	-2.263	-1.037	1.198	-0.226	0.000	0.377	-3.392	2.056	-1.800	-0.213	0.000	0.250	0.00000	-1.99773	0.00000	0.00000	11.30889	0.00000
1.4800	-2.086	-1.731	1.287	-0.230	0.000	0.392	-3.609	2.399	-1.798	-0.216	0.000	0.251	0.00000	-1.14820	0.00000	0.00000	11.24971	0.00000
1.4825	-2.261	-0.510	1.243	-0.227	0.000	0.403	-3.388	2.737	-2.363	-0.214	0.000	0.254	0.00000	-2.47741	0.00000	0.00000	8.37662	0.00000
1.4850	-2.217	-0.511	1.287	-0.230	0.000	0.388	-3.605	4.284	-2.494	-0.215	0.000	0.248	0.00000	-2.82101	0.00000	0.00000	6.58622	0.00000
1.4875	-2.305	-0.336	1.244	-0.222	0.000	0.410	-3.740	2.911	-2.061	-0.215	0.000	0.250	0.00000	-3.13418	0.00000	0.00000	9.46623	0.00000
1.4900	-2.174	0.180	1.152	-0.218	0.000	0.378	-3.563	2.909	-2.366	-0.213	0.000	0.251	0.00000	6.08846	0.00000	0.00000	8.30970	0.00000
1.4925	-2.261	-0.338	1.286	-0.227	0.000	0.384	-3.476	2.909	-2.409	-0.213	0.000	0.251	0.00000	-4.18633	0.00000	0.00000	7.98749	0.00000
1.4950	-2.173	-1.730	1.332	-0.232	0.000	0.395	-3.390	3.601	-1.838	-0.218	0.000	0.249	0.00000	-1.17759	0.00000	0.00000	8.01809	0.00000
1.4975	-2.305	-0.334	1.333	-0.225	0.000	0.404	-3.562	3.597	-2.406	-0.214	0.000	0.251	0.00000	-3.24320	0.00000	0.00000	7.39987	0.00000
1.5000	-2.217	-0.161	1.155	-0.227	0.000	0.406	-3.607	3.253	-2.366	-0.214	0.000	0.249	0.00000	-6.32849	0.00000	0.00000	7.81696	0.00000
1.5025	-2.392	-0.856	1.068	-0.240	0.000	0.405	-3.651	3.424	-2.277	-0.214	0.000	0.250	0.00000	-2.10408	0.00000	0.00000	7.92382	0.00000
1.5050	-1.912	-1.040	1.108	-0.221	0.000	0.379	-3.303	3.772	-1.924	-0.217	0.000	0.249	0.00000	-1.58714	0.00000	0.00000	7.50046	0.00000
1.5075	-2.265	-0.689	1.153	-0.220	0.000	0.366	-3.608	2.740	-2.058	-0.215	0.000	0.253	0.00000	-2.85451	0.00000	0.00000	9.76124	0.00000
1.5100	-1.910	-1.036	1.374	-0.221	0.000	0.389	-3.479	3.088	-1.663	-0.216	0.000	0.251	0.00000	-1.22030	0.00000	0.00000	9.50919	0.00000
1.5125	-2.349	-1.209	1.199	-0.231	0.000	0.394	-3.478	2.227	-1.840	-0.215	0.000	0.254	0.00000	-1.70401	0.00000	0.00000	11.43167	0.00000
1.5150	-2.478	-0.507	1.244	-0.239	0.000	0.413	-3.518	3.251	-2.450	-0.216	0.000	0.252	0.00000	-2.76181	0.00000	0.00000	7.71899	0.00000
1.5175	-2.263	0.008	0.975	-0.235	0.000	0.368	-3.737	3.081	-2.410	-0.214	0.000	0.251	0.00000	224.03632	0.00000	0.00000	8.45047	0.00000
1.5200	-2.349	-0.335	1.288	-0.228	0.000	0.397	-3.650	3.938	-2.452	-0.215	0.000	0.249	0.00000	-3.85749	0.00000	0.00000	6.96951	0.00000
1.5225	-1.956	-1.212	1.242	-0.215	0.000	0.389	-3.392	2.571	-1.797	-0.214	0.000	0.252	0.00000	-1.21334	0.00000	0.00000	9.96447	0.00000
1.5250	-2.042	-1.214	1.418	-0.218	0.000	0.381	-3.345	2.398	-2.103	-0.214	0.000	0.251	0.00000	-1.33667	0.00000	0.00000	9.45797	0.00000
1.5275	-2.086	-1.731	1.244	-0.228	0.000	0.398	-3.565	2.398	-1.929	-0.214	0.000	0.251	0.00000	-1.10652	0.00000	0.00000	10.64836	0.00000
1.5300	-1.866	-1.388	1.240	-0.231	0.000	0.378	-3.564	3.084	-2.058	-0.216	0.000	0.251	0.00000	-1.31391	0.00000	0.00000	8.88338	0.00000
1.5325	-2.087	-1.906	1.155	-0.228	0.000	0.397	-3.652	2.915	-1.841	-0.215	0.000	0.250	0.00000	-1.11456	0.00000	0.00000	9.82811	0.00000
1.5350	-2.264	-0.694	1.196	-0.213	0.000	0.366	-3.566	1.883	-1.887	-0.212	0.000	0.253	0.00000	-2.78757	0.00000	0.00000	12.73363	0.00000
1.5375	-2.262	0.012	1.419	-0.219	0.000	0.384	-3.607	3.766	-2.408	-0.215	0.000	0.249	0.00000	84.60316	0.00000	0.00000	7.11705	0.00000
1.5400	-2.305	0.532	1.462	-0.215	0.000	0.379	-3.693	4.627	-2.449	-0.216	0.000	0.249	0.00000	1.37347	0.00000	0.00000	6.59891	0.00000
1.5425	-2.349	-0.335	1.199	-0.235	0.000	0.393	-3.608	3.770	-2.145	-0.215	0.000	0.250	0.00000	-4.41219	0.00000	0.00000	7.67879	0.00000
1.5450	-2.040	-1.903	1.067	-0.244	0.000	0.407	-3.476	3.085	-2.145	-0.216	0.000	0.251	0.00000	-1.10587	0.00000	0.00000	8.47288	0.00000
